<svg xmlns="http://www.w3.org/2000/svg" viewBox="0 0 500 500"><g id="freepik--Shadow--inject-78"><ellipse cx="250" cy="448.36" rx="208.86" ry="17.45" style="fill:#ebebeb"></ellipse></g><g id="freepik--Floor--inject-78"><polygon points="30.64 411.51 85.48 411.27 140.32 411.18 250 411.01 359.68 411.18 414.52 411.27 469.36 411.51 414.52 411.76 359.68 411.84 250 412.01 140.32 411.84 85.48 411.75 30.64 411.51" style="fill:#263238"></polygon></g><g id="freepik--Gears--inject-78"><path d="M338.26,123.39a31.47,31.47,0,1,0,31.47-31.46A31.47,31.47,0,0,0,338.26,123.39Zm16.77,0a14.7,14.7,0,1,1,14.7,14.69A14.7,14.7,0,0,1,355,123.39Z" style="fill:#c7c7c7"></path><polygon points="363.68 93.23 375.77 93.23 375.11 84.67 364.35 84.67 363.68 93.23" style="fill:#c7c7c7"></polygon><polygon points="386.7 97.31 395.26 105.86 400.84 99.33 393.23 91.72 386.7 97.31" style="fill:#c7c7c7"></polygon><polygon points="400.11 116.47 400.11 128.57 408.67 127.91 408.67 117.14 400.11 116.47" style="fill:#c7c7c7"></polygon><polygon points="396.03 139.5 387.48 148.06 394 153.64 401.61 146.03 396.03 139.5" style="fill:#c7c7c7"></polygon><polygon points="376.86 152.91 364.76 152.91 365.43 161.47 376.19 161.47 376.86 152.91" style="fill:#c7c7c7"></polygon><polygon points="353.83 148.83 345.28 140.27 339.7 146.8 347.31 154.41 353.83 148.83" style="fill:#c7c7c7"></polygon><polygon points="340.43 129.66 340.43 117.56 331.87 118.23 331.87 128.99 340.43 129.66" style="fill:#c7c7c7"></polygon><polygon points="344.51 106.63 353.06 98.08 346.54 92.49 338.93 100.1 344.51 106.63" style="fill:#c7c7c7"></polygon><path d="M376.83,116.29l-9.71-2.6L360,120.8l2.6,9.69,9.7,2.6,7.11-7.1Zm-7.1,10.28a3.18,3.18,0,1,1,3.18-3.18A3.18,3.18,0,0,1,369.73,126.57Z" style="fill:#c7c7c7"></path><path d="M266,197a31.29,31.29,0,1,0,31.28-31.3A31.33,31.33,0,0,0,266,197Zm6.66,0a24.64,24.64,0,1,1,24.62,24.63A24.62,24.62,0,0,1,272.68,197ZM266,197a31.29,31.29,0,1,0,31.28-31.3A31.33,31.33,0,0,0,266,197Zm6.66,0a24.64,24.64,0,1,1,24.62,24.63A24.62,24.62,0,0,1,272.68,197Zm-28.12,0A52.75,52.75,0,1,0,297.3,144.2,52.74,52.74,0,0,0,244.56,197ZM263,197a34.3,34.3,0,1,1,34.28,34.29A34.34,34.34,0,0,1,263,197Zm3,0a31.29,31.29,0,1,0,31.28-31.3A31.33,31.33,0,0,0,266,197Zm6.66,0a24.64,24.64,0,1,1,24.62,24.63A24.62,24.62,0,0,1,272.68,197Z" style="fill:#407BFF"></path><polygon points="291.12 145.15 303.2 145.15 301.99 133.1 292.32 133.1 291.12 145.15" style="fill:#407BFF"></polygon><polygon points="317.85 149 328.31 155.03 333.29 143.99 324.92 139.16 317.85 149" style="fill:#407BFF"></polygon><polygon points="339.07 165.69 345.11 176.15 354.95 169.08 350.12 160.7 339.07 165.69" style="fill:#407BFF"></polygon><polygon points="349.11 190.76 349.11 202.84 361.17 201.63 361.17 191.96 349.11 190.76" style="fill:#407BFF"></polygon><polygon points="345.27 217.49 339.23 227.95 350.27 232.93 355.11 224.56 345.27 217.49" style="fill:#407BFF"></polygon><polygon points="328.58 238.71 318.12 244.75 325.19 254.59 333.56 249.76 328.58 238.71" style="fill:#407BFF"></polygon><polygon points="303.51 248.75 291.43 248.75 292.63 260.81 302.31 260.81 303.51 248.75" style="fill:#407BFF"></polygon><polygon points="276.78 244.91 266.32 238.87 261.33 249.91 269.71 254.75 276.78 244.91" style="fill:#407BFF"></polygon><polygon points="255.55 228.22 249.51 217.76 239.67 224.83 244.51 233.2 255.55 228.22" style="fill:#407BFF"></polygon><polygon points="245.51 203.15 245.51 191.07 233.46 192.27 233.46 201.94 245.51 203.15" style="fill:#407BFF"></polygon><polygon points="249.36 176.42 255.4 165.96 244.35 160.97 239.52 169.35 249.36 176.42" style="fill:#407BFF"></polygon><polygon points="266.05 155.19 276.51 149.15 269.44 139.31 261.06 144.15 266.05 155.19" style="fill:#407BFF"></polygon><path d="M126.75,113.64a14.36,14.36,0,1,0-13-15.63A14.35,14.35,0,0,0,126.75,113.64ZM115.53,98.18a12.6,12.6,0,1,1,11.37,13.71A12.59,12.59,0,0,1,115.53,98.18Zm11.22,15.46a14.36,14.36,0,1,0-13-15.63A14.35,14.35,0,0,0,126.75,113.64ZM115.53,98.18a12.6,12.6,0,1,1,11.37,13.71A12.59,12.59,0,0,1,115.53,98.18Zm11.22,15.46a14.36,14.36,0,1,0-13-15.63A14.35,14.35,0,0,0,126.75,113.64ZM115.53,98.18a12.6,12.6,0,1,1,11.37,13.71A12.59,12.59,0,0,1,115.53,98.18Zm9.74,31.3A30.26,30.26,0,1,0,98,96.55,30.28,30.28,0,0,0,125.27,129.48ZM111.56,97.81a16.59,16.59,0,1,1,15,18A16.61,16.61,0,0,1,111.56,97.81Zm2.23.2a14.35,14.35,0,1,0,15.61-13A14.34,14.34,0,0,0,113.79,98Zm1.74.17a12.6,12.6,0,1,1,11.37,13.71A12.59,12.59,0,0,1,115.53,98.18Zm11.22,15.46a14.36,14.36,0,1,0-13-15.63A14.35,14.35,0,0,0,126.75,113.64ZM115.53,98.18a12.6,12.6,0,1,1,11.37,13.71A12.59,12.59,0,0,1,115.53,98.18Zm11.22,15.46a14.36,14.36,0,1,0-13-15.63A14.35,14.35,0,0,0,126.75,113.64ZM115.53,98.18a12.6,12.6,0,1,1,11.37,13.71A12.59,12.59,0,0,1,115.53,98.18Z" style="fill:#455a64"></path><polygon points="124.97 69.93 136.55 71 136.68 62.74 126.37 61.78 124.97 69.93" style="fill:#455a64"></polygon><polygon points="146.66 75.88 154.09 84.83 160.01 79.08 153.41 71.11 146.66 75.88" style="fill:#455a64"></polygon><polygon points="157.78 95.42 156.71 107.01 164.97 107.13 165.93 96.83 157.78 95.42" style="fill:#455a64"></polygon><polygon points="151.83 117.11 142.88 124.54 148.63 130.47 156.6 123.86 151.83 117.11" style="fill:#455a64"></polygon><polygon points="132.29 128.24 120.7 127.16 120.58 135.42 130.88 136.38 132.29 128.24" style="fill:#455a64"></polygon><polygon points="110.6 122.29 103.17 113.33 97.24 119.09 103.85 127.05 110.6 122.29" style="fill:#455a64"></polygon><polygon points="99.47 102.74 100.55 91.16 92.29 91.03 91.33 101.34 99.47 102.74" style="fill:#455a64"></polygon><polygon points="105.42 81.05 114.38 73.62 108.62 67.69 100.66 74.31 105.42 81.05" style="fill:#455a64"></polygon><path d="M164.29,149.87a36.35,36.35,0,1,0,37.29-35.38A36.35,36.35,0,0,0,164.29,149.87Zm19.37.51a17,17,0,1,1,16.52,17.42A17,17,0,0,1,183.66,150.38Z" style="fill:#c7c7c7"></path><polygon points="194.56 115.81 208.53 116.18 208.02 106.27 195.59 105.94 194.56 115.81" style="fill:#c7c7c7"></polygon><polygon points="221.03 121.22 230.65 131.37 237.3 124 228.74 114.97 221.03 121.22" style="fill:#c7c7c7"></polygon><polygon points="235.92 143.77 235.56 157.74 245.47 157.23 245.79 144.8 235.92 143.77" style="fill:#c7c7c7"></polygon><polygon points="230.51 170.24 220.37 179.86 227.74 186.5 236.76 177.95 230.51 170.24" style="fill:#c7c7c7"></polygon><polygon points="207.97 185.13 194 184.76 194.51 194.67 206.94 195 207.97 185.13" style="fill:#c7c7c7"></polygon><polygon points="181.5 179.72 171.88 169.58 165.23 176.95 173.79 185.97 181.5 179.72" style="fill:#c7c7c7"></polygon><polygon points="166.61 157.18 166.98 143.21 157.06 143.72 156.74 156.15 166.61 157.18" style="fill:#c7c7c7"></polygon><polygon points="172.02 130.71 182.16 121.09 174.79 114.44 165.77 123 172.02 130.71" style="fill:#c7c7c7"></polygon><path d="M210.28,141.92l-11.91-3.53-9,8.56,2.9,12.07,11.91,3.54,9-8.55Zm-9.12,12.49a3.94,3.94,0,1,1,4.05-3.84A3.93,3.93,0,0,1,201.16,154.41Z" style="fill:#c7c7c7"></path></g><g id="freepik--Cones--inject-78"><path d="M313.84,438.52l5.57-38.31,1.61.73,2.58,1.17,11.17,5.05,10,4.52,6.59,3,10,4.53,5.49,2.48a5.28,5.28,0,0,1-1.42,9.81l-2.32.32h0l-3.65.5-10.88,1.48-7.17,1-10.9,1.49-4.55.62Z" style="fill:#407BFF"></path><path d="M321.3,401.28a23.78,23.78,0,0,1-2.05,4.14c-3.4,5.29-5.86,16.15-4,28.65a16,16,0,0,0,.82,3.95l2.33-.15s10.86-23.83,46.36-17.2l-3.36-1.52-10-4.52-6.59-3-10-4.52Z" style="opacity:0.1;mix-blend-mode:multiply"></path><polygon points="348.61 433.78 351.38 414.66 361.4 419.19 359.49 432.3 348.61 433.78" style="fill:#ebebeb"></polygon><polygon points="330.54 436.24 334.77 407.16 344.79 411.68 341.44 434.75 330.54 436.24" style="fill:#ebebeb"></polygon><path d="M216.12,437.56H178.83l.47-1.64.76-2.62L183.32,422l2.93-10.17,1.92-6.7,2.93-10.17,1.6-5.58a5.09,5.09,0,0,1,9.56,0l.62,2.16h0l1,3.41,2.92,10.17,1.92,6.7L211.63,422l1.22,4.26Z" style="fill:#407BFF"></path><polygon points="217.45 447.24 168.45 447.24 176.26 427.89 176.26 427.89 225.27 427.89 225.27 427.89 217.45 447.24 217.45 447.24" style="fill:#407BFF"></polygon><polygon points="206.78 405.08 188.17 405.08 191.1 394.91 203.86 394.91 206.78 405.08" style="fill:#ebebeb"></polygon><polygon points="211.63 421.95 183.32 421.95 186.25 411.78 208.71 411.78 211.63 421.95" style="fill:#ebebeb"></polygon><path d="M178.31,435a39.34,39.34,0,0,0,9.45,2.88,51,51,0,0,0,9.79.74c1.63-.11,3.28-.12,4.9-.37.82-.11,1.64-.16,2.45-.31s1.61-.3,2.43-.44c.4-.08.81-.14,1.21-.23l1.2-.3,2.41-.58c1.6-.43,3.17-1,4.8-1.39-1.51.71-3,1.43-4.58,2l-2.38.82-1.2.39c-.4.12-.81.21-1.22.32l-2.45.59c-.82.18-1.66.27-2.5.41a49.66,49.66,0,0,1-5,.46,40.42,40.42,0,0,1-10.05-1.08A27.42,27.42,0,0,1,178.31,435Z" style="fill:#263238"></path><path d="M179.59,435.61a23.36,23.36,0,0,1,4.23,1.38c5.52,2.5,16.2,3.34,27.87-.16a15.32,15.32,0,0,0,3.64-1.33l-.47-2.2s-24.22-7-22.82-41.8l-1,3.41-2.92,10.17-1.92,6.7L183.29,422Z" style="opacity:0.1;mix-blend-mode:multiply"></path><polygon points="303.69 438.44 311.01 388.1 329.73 399.02 322.41 449.36 303.69 438.44 303.69 438.44" style="fill:#407BFF"></polygon><path d="M322.34,419.85c-1,9.31-4.42,16.56-7.52,16.21s-4.78-8.17-3.74-17.47,4.42-16.56,7.53-16.21S323.39,410.55,322.34,419.85Z" style="fill:#263238"></path></g><g id="freepik--character-1--inject-78"><path d="M152.27,398.78c-1.79.56-52.38-.53-54.28-1.79-.72-.47-1-7.85-1.07-16.77,0-1.93,0-3.91,0-5.94,0-2.4,0-4.82,0-7.17.14-10.57.46-19.87.46-19.87l32.93.61L130,367.72l-.14,7.17-.28,5.93s19.18,9.08,21.12,10.69S154,398.23,152.27,398.78Z" style="fill:#f7a9a0"></path><path d="M152.27,398.78c-1.79.56-52.38-.53-54.28-1.79-.72-.47-1-7.85-1.07-16.77,0-1.93,0-3.91,0-5.94,0-2.4,0-4.82,0-7.17l33,.61-.14,7.17-.28,5.93s19.18,9.08,21.12,10.69S154,398.23,152.27,398.78Z" style="fill:#fff"></path><path d="M152.42,398.86c-1.16.36-22.71,0-38.4-.58-3.63-.15-7-.31-9.62-.47-3.69-.24-6.17-.49-6.56-.75-.88-.59-1.11-11.42-1.1-22.84l33.1.61-.28,6s19.29,9.13,21.24,10.74S154.2,398.3,152.42,398.86Z" style="fill:#407BFF"></path><path d="M151.73,396.81c-8.52-.39-42.94-1.17-51.39-.91-.07,0-.07.05,0,.05,8.44.58,42.86,1.07,51.39,1C151.91,397,151.91,396.82,151.73,396.81Z" style="fill:#263238"></path><path d="M130.81,378.93c-3.35-.7-7.46-.27-10.08,2.06-.1.09,0,.24.14.2a47.58,47.58,0,0,1,9.91-1.84A.21.21,0,0,0,130.81,378.93Z" style="fill:#263238"></path><path d="M133.2,380.44c-3.35-.7-7.46-.27-10.08,2.07-.1.09,0,.23.14.2a47.07,47.07,0,0,1,9.91-1.85A.21.21,0,0,0,133.2,380.44Z" style="fill:#263238"></path><path d="M135.59,382c-3.34-.7-7.46-.27-10.07,2.07-.11.09,0,.23.13.2a47,47,0,0,1,9.92-1.84A.22.22,0,0,0,135.59,382Z" style="fill:#263238"></path><path d="M138,383.46c-3.34-.7-7.46-.27-10.07,2.07-.11.09,0,.23.13.2a47,47,0,0,1,9.92-1.84A.22.22,0,0,0,138,383.46Z" style="fill:#263238"></path><path d="M137.17,371.3c-1.28-1.84-3.75-1.08-5.18.07a17.88,17.88,0,0,0-5.33,7.57.09.09,0,0,0,.07.13c0,.25.23.53.52.43,2.8-1,5.9-1.66,8.31-3.45C137,375,138.38,373.05,137.17,371.3Zm-6,5.87c-1.37.5-2.74.94-4.09,1.5,1.05-1.47,2-3,3.21-4.35a19.14,19.14,0,0,1,1.82-1.89c1-.88,5-2.73,4.35.94C136.11,375.39,132.81,376.56,131.19,377.17Z" style="fill:#263238"></path><path d="M118.15,377.89c2.74,1.23,5.92,1.24,8.85,1.59a.42.42,0,0,0,.42-.53.1.1,0,0,0,0-.14,18,18,0,0,0-6.83-6.26c-1.64-.82-4.22-1-5.08,1S116.55,377.16,118.15,377.89Zm-1.47-2.43c-1.43-3.44,2.86-2.49,4-1.84a21.14,21.14,0,0,1,2.18,1.45,52.88,52.88,0,0,1,4.06,3.57c-1.43-.26-2.87-.39-4.31-.6C121,377.8,117.48,377.36,116.68,375.46Z" style="fill:#263238"></path><path d="M126.52,398.68c-4.25-.11-8.56-.25-12.5-.41-3.63-.13-7-.29-9.62-.46-3.69-.24-6.17-.49-6.56-.76-.77-.51-1-8.88-1.09-18.62C104.26,383.45,119,393.54,126.52,398.68Z" style="opacity:0.2"></path><path d="M132.79,380.41l-37.59,0s2.06-84.61,1.66-86.58c-1-4.71-22.34-79.3-22.34-79.3l29.68.51,10.13.17s-.87,12.43-.52,13.74c5,18.1,14.65,49,16.62,60.46C133.86,309.3,132.79,380.41,132.79,380.41Z" style="fill:#263238"></path><path d="M131.57,374.13c-5.86-.15-26.63-.77-34.45-.19a.06.06,0,0,0,0,.12c2.68.43,28.59.31,34.45.23A.08.08,0,1,0,131.57,374.13Z" style="fill:#37474f"></path><path d="M99.81,292c-1.12-4.57-9.49-33.07-12.06-42.07s-5-18-7.17-27.12c-.28-1.15-.56-2.3-.87-3.45,0-.1-.16-.05-.15,0,.85,4.58,2,9.11,3,13.64s2.22,9,3.43,13.54q3.64,13.54,7.94,26.91c1.43,4.44,3.8,13.55,5.06,18s-.8,78.17-.67,79.36a.27.27,0,0,0,.54,0C99.06,362.2,100.92,296.52,99.81,292Z" style="fill:#37474f"></path><path d="M104.2,215.07s-7.26,79.18-7.34,78.79c-.93-4.55-21-74.7-22.29-79.08l-.06-.21Z" style="fill:#37474f"></path><path d="M113.28,403.12c-1.78.55-52.37-.53-54.27-1.79-.72-.47-1-7.86-1.07-16.78,0-1.93,0-3.91,0-5.94,0-2.39,0-4.81,0-7.17.13-10.56.45-19.87.45-19.87l32.94.61L91,372.05l-.14,7.17-.28,5.94s19.18,9.08,21.12,10.69S115.06,402.57,113.28,403.12Z" style="fill:#f7a9a0"></path><path d="M113.28,403.12c-1.78.55-52.37-.53-54.27-1.79-.72-.47-1-7.86-1.07-16.78,0-1.93,0-3.91,0-5.94,0-2.39,0-4.81,0-7.17l33,.61-.14,7.17-.28,5.94s19.18,9.08,21.12,10.69S115.06,402.57,113.28,403.12Z" style="fill:#fff"></path><path d="M113.44,403.19c-1.17.36-22.72,0-38.4-.57-3.63-.15-7-.31-9.63-.48-3.68-.24-6.16-.48-6.56-.75-.88-.58-1.1-11.41-1.09-22.84l33.1.62-.28,6s19.29,9.13,21.24,10.75S115.22,402.63,113.44,403.19Z" style="fill:#407BFF"></path><path d="M112.75,401.14c-8.52-.39-42.94-1.16-51.39-.9-.07,0-.07,0,0,.05,8.44.57,42.86,1.07,51.4,1C112.93,401.28,112.93,401.15,112.75,401.14Z" style="fill:#263238"></path><path d="M91.82,383.26c-3.34-.69-7.45-.27-10.07,2.07-.1.09,0,.23.14.2a46.93,46.93,0,0,1,9.91-1.84A.22.22,0,0,0,91.82,383.26Z" style="fill:#263238"></path><path d="M94.21,384.78c-3.34-.7-7.45-.27-10.07,2.06-.1.09,0,.23.14.2a47.58,47.58,0,0,1,9.91-1.84A.21.21,0,0,0,94.21,384.78Z" style="fill:#263238"></path><path d="M96.61,386.29c-3.35-.7-7.46-.27-10.08,2.06-.1.09,0,.24.14.2a47.58,47.58,0,0,1,9.91-1.84A.21.21,0,0,0,96.61,386.29Z" style="fill:#263238"></path><path d="M99,387.8c-3.35-.7-7.46-.27-10.08,2.06-.1.1,0,.24.14.21A47,47,0,0,1,99,388.22.21.21,0,0,0,99,387.8Z" style="fill:#263238"></path><path d="M98.19,375.64c-1.28-1.85-3.76-1.08-5.18.06a17.91,17.91,0,0,0-5.33,7.58.08.08,0,0,0,.07.12c0,.26.23.53.52.43,2.79-1,5.9-1.65,8.31-3.45C98,379.34,99.4,377.38,98.19,375.64Zm-6,5.86c-1.36.51-2.74.95-4.08,1.51a52.57,52.57,0,0,1,3.21-4.36,20.2,20.2,0,0,1,1.82-1.88c1-.89,5-2.74,4.34.93C97.12,379.72,93.83,380.89,92.2,381.5Z" style="fill:#263238"></path><path d="M79.17,382.22c2.74,1.24,5.92,1.25,8.85,1.6a.42.42,0,0,0,.42-.54.08.08,0,0,0,0-.13,17.86,17.86,0,0,0-6.82-6.26c-1.64-.82-4.22-1-5.08,1S77.57,381.5,79.17,382.22ZM77.7,379.8c-1.44-3.45,2.86-2.49,4-1.84a17.55,17.55,0,0,1,2.18,1.45A51.19,51.19,0,0,1,88,383c-1.43-.26-2.87-.4-4.31-.6C82,382.13,78.49,381.69,77.7,379.8Z" style="fill:#263238"></path><path d="M92.77,384.24l-36.47-.67s10.24-131.55,9-138.52c-2.09-11.41-.31-24.43,5.18-30.61l35.54.66s.52,10-3.26,15.87c0,0-3.37,2.05-5,2.95Z" style="fill:#263238"></path><path d="M91.77,377.77c-5.53-.25-3.94-.26-9.48-.44-2.7-.09-20.5-.67-23-.31,0,0,0,.1,0,.11,2.52.48,20.32.75,23,.78,5.54.08,4,0,9.48,0C91.87,377.93,91.87,377.77,91.77,377.77Z" style="fill:#37474f"></path><path d="M105,229.42a68.37,68.37,0,0,0-10.1,5.73.12.12,0,0,0,.12.2c3.42-1.81,6.91-3.56,10.21-5.54A.23.23,0,1,0,105,229.42Z" style="fill:#37474f"></path><path d="M100.46,228.82a15.2,15.2,0,0,0-.52,2.09,4.41,4.41,0,0,0-.14,1.69.12.12,0,0,0,.22,0,5.85,5.85,0,0,0,.59-1.69c.18-.65.37-1.29.54-1.95A.36.36,0,0,0,100.46,228.82Z" style="fill:#37474f"></path><path d="M100.2,225.39c.11-.59.21-1.18.33-1.77s.29-1.22.36-1.84c0-.1.17-.06.15,0-.1.59-.12,1.2-.18,1.8s-.13,1.2-.2,1.8a32.19,32.19,0,0,1-.59,3.35,4,4,0,0,0,1.65-.65,3.22,3.22,0,0,0,.91-1.7c.18-.67.34-1.36.54-2a12.65,12.65,0,0,0,.56-2.26c0-.1.17-.07.15,0a23.66,23.66,0,0,1-1,4.77,2.6,2.6,0,0,1-.92,1.57,5.15,5.15,0,0,1-2,.55c-.08,0-.2,0-.19-.1A35.61,35.61,0,0,1,100.2,225.39Z" style="fill:#37474f"></path><path d="M71.05,244.7c-.21-2.61-.59-5.21-.82-7.83a48.34,48.34,0,0,1,1.23-15.62.07.07,0,1,0-.14,0,57.58,57.58,0,0,0-1.66,13.7c.14,4.61.88,9.17.87,13.79s-.47,9.34-.86,14-.77,9.37-1.16,14.06c-1.56,18.83-3,37.67-4.53,56.51-.42,5.26-.81,10.52-1.21,15.78s-1,18.55-1.33,23.91c0,.47.67.44.71,0,1-9.45,1.76-26.79,2.54-36.25s1.5-18.74,2.24-28.12,1.49-18.74,2.22-28.11q.54-7,1.07-14.06c.36-4.66.79-9.33,1-14A70.84,70.84,0,0,0,71.05,244.7Z" style="fill:#37474f"></path><path d="M84.07,221.16c0-.06-.1-.08-.14,0a6,6,0,0,0-.37,1.91,13.13,13.13,0,0,1-.53,2,8.15,8.15,0,0,1-2.19,3.55c-2.28,2-5.29,2.77-8.19,3.43-.11,0-.07.17,0,.18a12.94,12.94,0,0,0,5-.7,10.46,10.46,0,0,0,3.93-2.1,7.25,7.25,0,0,0,2.17-3.76,12.79,12.79,0,0,0,.28-2.3c0-.37,0-.74,0-1.11A2.83,2.83,0,0,0,84.07,221.16Z" style="fill:#37474f"></path><path d="M105.07,166c5.35,17.2,16.15,33.94,19.5,36.22,5.18,3.53,29.76,6.56,37.84,5.61,2.65-.31,1.67-18.67-.75-20.17s-26.32-1.8-27.94-2.44c-.86-.34-13.6-15-20.77-22.71C106.27,155.31,103.45,160.73,105.07,166Z" style="fill:#f7a9a0"></path><path d="M123.8,173.48l-13.65,11s-6-12.9-6.44-20.72,3.24-6.94,7.59-3.18S123.8,173.48,123.8,173.48Z" style="fill:#ebebeb"></path><path d="M121.37,171.9c.09-.07.07-.15,0-.09A118.48,118.48,0,0,0,109.89,181a0,0,0,0,0,0,.05C112,179.82,120.37,172.67,121.37,171.9Z" style="fill:#263238"></path><path d="M64.62,218.54c.09.16,51.69,10.54,52.26,10.1.81-.61,1.76-54-4.42-66.85-1.55-3.2-8.54-6.47-12.12-4.15C90,164.35,86.85,171,83.5,176.3a171.51,171.51,0,0,0-9.06,17.83C69.14,205.77,64.29,218,64.62,218.54Z" style="fill:#ebebeb"></path><path d="M99.44,157.6s4.51,18.77,5,23.44c.63,6.38-4,46.92-4,46.92l-36.67-8.8S78,180.34,88.54,167.56C96.87,157.5,99.44,157.6,99.44,157.6Z" style="fill:#407BFF"></path><path d="M111.3,160.59s1.46,16.66,1.88,19.19-.42,50.43-.42,50.43l4.87-.88s.64-33.15-1-50.37S111.3,160.59,111.3,160.59Z" style="fill:#407BFF"></path><path d="M102.09,212.09l-33.14-6c.5-1.2,1-2.45,1.58-3.74l32,5.79C102.36,209.47,102.22,210.8,102.09,212.09Z" style="fill:#ebebeb"></path><path d="M117.76,214.92l-4.74-.85c0-1.31,0-2.66,0-4l4.68.85C117.76,212.28,117.76,213.63,117.76,214.92Z" style="fill:#ebebeb"></path><path d="M101.36,219l-35.11-6.37,1.53-3.74,34,6.17C101.63,216.47,101.48,217.79,101.36,219Z" style="fill:#ebebeb"></path><path d="M117.73,222l-4.82-.87c0-1.25,0-2.6.07-4l4.77.86C117.74,219.42,117.73,220.76,117.73,222Z" style="fill:#ebebeb"></path><path d="M173,143a24.82,24.82,0,0,1,25.63-5.24l-14.79,14,4.74,10.74L199,167.78l14.8-14A24.85,24.85,0,1,1,173,143Z" style="fill:#455a64"></path><path d="M103.29,277.13a24.85,24.85,0,0,1-25.63,5.25l14.79-14-4.74-10.74-10.45-5.35-14.8,14a24.85,24.85,0,1,1,40.83,10.84Z" style="fill:#455a64"></path><rect x="129.15" y="147.68" width="22.13" height="120.84" transform="translate(85.13 452.92) rotate(-133.35)" style="fill:#455a64"></rect><rect x="135.66" y="183.22" width="9.11" height="49.76" transform="translate(85.13 452.91) rotate(-133.35)" style="fill:#37474f"></rect><path d="M91,169c-5.17,13.19-5.84,32.86-1,38.56,7.62,9,21.4,17.05,28.15,19.08,3.94,1.19,10-21.29,6.59-22.52-5.44-1.94-18.34-7.2-20.09-8.39s-3.06-15.1-4.81-25.34C98,159.21,93.64,162.23,91,169Z" style="fill:#f7a9a0"></path><path d="M116.43,225.93c11.66,4.78,25.54,3.08,27.81,2.28,1.94-.67,2.94-1,2.94-1,3.5-1.14,4.37-3.14,4.37-3.14s4.44-.12,4.81-2.82c.42-3-5.89-2.25-9.63-4-8.54-3.9-19.61-11.83-22-13.19Z" style="fill:#f7a9a0"></path><path d="M134.91,219.47a60.58,60.58,0,0,0,7.67,3,59.82,59.82,0,0,0,8.91,1.49.08.08,0,0,1,0,.15,32,32,0,0,1-16.68-4.41C134.69,219.62,134.78,219.42,134.91,219.47Z" style="fill:#263238"></path><path d="M131.81,224.29a44.3,44.3,0,0,0,15.37,2.79,0,0,0,0,1,0,.06,28.82,28.82,0,0,1-15.46-2.59C131.57,224.48,131.64,224.23,131.81,224.29Z" style="fill:#263238"></path><path d="M136.73,211.91c-.91-.95-.42-1.43,1.9-1.11s11.21,3.57,12.08.37-11.75-7.59-15.65-7.84a61.86,61.86,0,0,0-10.29.74C127.06,205.41,132.28,209.21,136.73,211.91Z" style="fill:#f7a9a0"></path><path d="M102.84,185.21,85.36,186.6s2.35-14,6.37-20.74,6.59-3.9,8.06,1.66S102.84,185.21,102.84,185.21Z" style="fill:#ebebeb"></path><path d="M101.72,182.54c.12,0,.15-.09,0-.09a117.66,117.66,0,0,0-14.67,1.16s0,.06,0,.06C89.52,183.78,100.46,182.6,101.72,182.54Z" style="fill:#263238"></path><path d="M108.26,166.48c-2.22,0-6.71-4.25-8.4-7.8-.12-.24.39-2.71.85-5.74.28-1.84.54-3.89.65-5.78l11.7,3.54a30,30,0,0,0-1.55,7.2,3.92,3.92,0,0,0,0,.78s0,.08,0,.13C111.71,160.3,111.73,166.43,108.26,166.48Z" style="fill:#f7a9a0"></path><path d="M111.54,158.68a.93.93,0,0,0,0,.14,10.18,10.18,0,0,1-1.23,0c-6.87-.54-8.1-9.09-8.31-11.44l11,3.33a30,30,0,0,0-1.55,7.2A4.89,4.89,0,0,0,111.54,158.68Z" style="fill:#263238"></path><path d="M102,131.12c-2,3.92-2,16.29.52,19.49,3.58,4.63,10.51,6.25,14.72,1.7s3.73-20.53.87-23.55C113.94,124.32,105,125.33,102,131.12Z" style="fill:#f7a9a0"></path><path d="M113.17,140.25s-.06,0-.06.07c.06.83,0,1.8-.75,2.11,0,0,0,0,0,0C113.29,142.3,113.36,141,113.17,140.25Z" style="fill:#263238"></path><path d="M112.39,139.41c-1.34,0-1.33,2.64-.09,2.69S113.52,139.45,112.39,139.41Z" style="fill:#263238"></path><path d="M117.61,140.08s.06,0,.06.08c0,.83.09,1.79.84,2.06,0,0,0,.05,0,.05C117.59,142.14,117.45,140.87,117.61,140.08Z" style="fill:#263238"></path><path d="M118.35,139.21c1.34-.11,1.45,2.58.21,2.68S117.22,139.3,118.35,139.21Z" style="fill:#263238"></path><path d="M111.33,138.18a10.78,10.78,0,0,0,1-.37,1.77,1.77,0,0,0,1-.58.59.59,0,0,0-.1-.69,1.44,1.44,0,0,0-1.42-.14,2.07,2.07,0,0,0-1.19.9A.61.61,0,0,0,111.33,138.18Z" style="fill:#263238"></path><path d="M119.28,138.16c-.37-.06-.71-.18-1.07-.27a1.81,1.81,0,0,1-1-.49.56.56,0,0,1,0-.69,1.37,1.37,0,0,1,1.4-.27,2.08,2.08,0,0,1,1.27.78A.61.61,0,0,1,119.28,138.16Z" style="fill:#263238"></path><path d="M111.94,148c.2.19.4.46.7.49a2.13,2.13,0,0,0,.89-.22s.06,0,0,0a1.1,1.1,0,0,1-1.06.46.88.88,0,0,1-.65-.73C111.84,148,111.91,148,111.94,148Z" style="fill:#263238"></path><path d="M112.8,145.51a2.85,2.85,0,0,0,1.9,1.26,3.86,3.86,0,0,0,1,0l.2,0,.18,0a.22.22,0,0,0,.17-.19h0s0-.05,0-.08h0v-.07c0-.64-.05-1.62-.05-1.62.23.12,1.43.65,1.41.32a42.24,42.24,0,0,0-1.14-8.58.08.08,0,0,0-.15,0c.07,2.67.6,5.31.71,8a4.8,4.8,0,0,0-1.34-.4c-.1,0,.16,1.88.13,2.17v0a3.94,3.94,0,0,1-2.94-.9C112.82,145.39,112.75,145.44,112.8,145.51Z" style="fill:#263238"></path><path d="M115.34,146.49a3.25,3.25,0,0,1-1.34,1,1.52,1.52,0,0,1-.92.07c-.67-.18-.69-.79-.57-1.31a3.63,3.63,0,0,1,.3-.8A4.4,4.4,0,0,0,115.34,146.49Z" style="fill:#263238"></path><path d="M114,147.53a1.52,1.52,0,0,1-.92.07c-.67-.18-.69-.79-.57-1.31A1.56,1.56,0,0,1,114,147.53Z" style="fill:#ff9bbc"></path><path d="M119.6,132.16c-.12-.37-.45-1.3-.93-1.35s-1.08.88-2.23,1.09c-1.62.31-4.25-1.68-6.49-1.27s-3.72,2.36-4.48,6.22-4.1,6.71-4.75,4.08a5,5,0,0,0-.11-.5c0-3.76.48-7.47,1.43-9.31,3-5.79,11.9-6.8,16.11-2.35A7.71,7.71,0,0,1,119.6,132.16Z" style="fill:#263238"></path><path d="M102.86,141.34s-2.11-4.32-4-3.63-.77,6.65,1.18,7.75a2.13,2.13,0,0,0,3-.69Z" style="fill:#f7a9a0"></path><path d="M99.21,139.41s0,0,0,.06a5.34,5.34,0,0,1,2.22,3.76,1.18,1.18,0,0,0-1.69-.59s0,.08,0,.08a1.32,1.32,0,0,1,1.36.68,6.89,6.89,0,0,1,.5,1.26c0,.14.29.11.26,0v0C102.2,142.73,101.17,139.91,99.21,139.41Z" style="fill:#263238"></path><path d="M121,133.05s-1.49-12.15-12.34-10.91-9.55,13.42-9.55,13.42Z" style="fill:#407BFF"></path><rect x="98.25" y="133.44" width="23.68" height="1.74" transform="translate(234.76 255.2) rotate(173.46)" style="fill:#407BFF"></rect><polygon points="110.16 133.43 115.06 132.87 112.54 121.07 107.64 121.63 110.16 133.43" style="fill:#407BFF"></polygon><polygon points="110.16 133.43 115.06 132.87 112.54 121.07 107.64 121.63 110.16 133.43" style="opacity:0.1"></polygon><path d="M151.83,201.71c.2-2.75,3.33-.94,3.33-.94s-3.88-3.7-2.57-6.46,5-.33,5.24-.16c-.2-.2-3.68-3.69-2.08-6.33s5,.23,5.2.43c-.14-.25-1.85-3.54-.18-5.27,2.87-3,8.55,6,11.8,6.81l4.84-3.92a8.38,8.38,0,0,0-.62,4.67c.28,2.29.49,3.82,0,5.18a3,3,0,0,1-2.95,2.09s1.74,2.36.55,4.47c-.62,1.09-2.9,1.07-2.9,1.07a3.61,3.61,0,0,1,.14,3.76c-.94,1.45-3.08,1.21-3.08,1.21s.4,2.45-1,3.62C164.61,214.32,151.4,207.61,151.83,201.71Z" style="fill:#f7a9a0"></path><path d="M173.82,189.06l3.51-3.1c.15-.08.31-.17.47-.24,5.37-2.62,12.31.65,9.15,3.56-2.39,2.21-7.76.82-9.89,3.44h0Z" style="fill:#f7a9a0"></path><path d="M168.2,208.33a0,0,0,0,1,0,.08,25.71,25.71,0,0,1-13.2-7.72c-.11-.12.05-.35.19-.24A52.8,52.8,0,0,0,168.2,208.33Z" style="fill:#263238"></path><path d="M171.54,203.41c.06,0,0,.11,0,.1a24.14,24.14,0,0,1-13.88-9.31c-.11-.17,0-.43.1-.25C160.15,197,167.1,201.62,171.54,203.41Z" style="fill:#263238"></path><path d="M160.83,187.83c3.34,4.52,7.79,7.52,12.8,9.95.06,0,0,.12,0,.11-2.77-.52-5.81-2.4-8-4.06a14.75,14.75,0,0,1-4.86-5.88C160.63,187.85,160.76,187.73,160.83,187.83Z" style="fill:#263238"></path><polygon points="168.6 218.72 146.16 441.31 140.69 441.31 162.58 224.17 105.64 224.17 66.04 441.31 60.51 441.31 101.1 218.72 168.6 218.72" style="fill:#407BFF"></polygon><rect x="97.31" y="266.57" width="65.47" height="5.44" style="fill:#407BFF"></rect><rect x="88.5" y="310.71" width="65.47" height="5.44" style="fill:#407BFF"></rect><rect x="79.12" y="354.85" width="70.53" height="5.44" style="fill:#407BFF"></rect><rect x="71.9" y="398.99" width="74.41" height="5.44" style="fill:#407BFF"></rect><g style="opacity:0.5"><polygon points="168.6 218.72 146.16 441.31 140.69 441.31 162.58 224.17 105.64 224.17 66.04 441.31 60.51 441.31 101.1 218.72 168.6 218.72"></polygon><rect x="97.31" y="266.57" width="65.47" height="5.44"></rect><rect x="88.5" y="310.71" width="65.47" height="5.44"></rect><rect x="79.12" y="354.85" width="70.53" height="5.44"></rect><rect x="71.9" y="398.99" width="74.41" height="5.44"></rect></g><polygon points="214.2 459.15 208.66 459.15 164.12 224.17 107.19 224.17 134.01 459.15 128.54 459.15 101.1 218.72 168.63 218.72 214.2 459.15" style="fill:#407BFF"></polygon><polygon points="214.2 459.15 208.66 459.15 164.12 224.17 107.19 224.17 134.01 459.15 128.54 459.15 101.1 218.72 168.63 218.72 214.2 459.15" style="opacity:0.2"></polygon><rect x="97.49" y="212.23" width="73.78" height="6.49" style="fill:#407BFF"></rect><rect x="97.49" y="212.23" width="73.78" height="6.49" style="opacity:0.2"></rect></g><g id="freepik--tools-box--inject-78"><rect x="47.1" y="406.61" width="2.83" height="44.19" style="fill:#407BFF"></rect><polygon points="85.35 430.95 83.02 430.14 84.24 429.58 83.63 428.39 84.85 427.83 84.25 426.64 85.46 426.08 84.86 424.89 86.08 424.33 85.47 423.13 86.69 422.58 86.08 421.38 87.3 420.82 86.69 419.63 87.91 419.07 87.31 417.88 88.52 417.32 87.92 416.13 89.14 415.57 88.53 414.38 89.75 413.82 89.14 412.63 90.36 412.07 89.76 410.87 90.97 410.32 90.37 409.12 91.59 408.56 90.98 407.37 92.2 406.81 91.59 405.62 92.81 405.06 92.2 403.87 93.42 403.31 92.82 402.12 94.03 401.56 93.43 400.36 94.65 399.81 94.04 398.61 95.26 398.06 94.65 396.86 95.87 396.3 95.27 395.11 96.48 394.55 95.88 393.36 97.09 392.8 96.49 391.61 97.71 391.05 97.1 389.86 98.32 389.3 97.72 388.1 98.93 387.55 98.33 386.35 99.54 385.8 98.94 384.6 101.27 385.41 85.35 430.95" style="fill:#c7c7c7"></polygon><rect x="96.67" y="378.91" width="10.28" height="2.49" transform="matrix(-0.33, 0.94, -0.94, -0.33, 494.27, 409.47)" style="fill:#37474f"></rect><path d="M85.35,431l.62-1.77,8.69,3a1.64,1.64,0,0,0,2.09-1l13.9-39.79a1.64,1.64,0,0,0-1-2.09l-8.67-3,.61-1.76,8.67,3a3.51,3.51,0,0,1,2.16,4.47l-13.9,39.79A3.52,3.52,0,0,1,94,434Z" style="fill:#263238"></path><rect x="107.49" y="406.61" width="2.83" height="44.19" style="fill:#407BFF"></rect><rect x="49.93" y="410.12" width="57.71" height="2.27" style="fill:#407BFF"></rect><path d="M49.17,402l15.26-3.31-3.55-16.37L45.62,385.6Zm1.06-5.59-2-9.23,10.93-2.37,2,9.23Z" style="fill:#263238"></path><polygon points="67.75 440.89 67.72 440.88 68.68 440.37 68.67 440.32 68.67 440.31 67.65 440.08 68.6 439.56 68.59 439.51 67.56 439.27 68.52 438.76 68.51 438.7 67.48 438.47 68.43 437.95 68.42 437.9 67.39 437.66 68.35 437.15 68.34 437.09 67.32 436.85 68.27 436.33 68.26 436.28 68.26 436.28 67.24 436.04 68.18 435.53 68.18 435.48 67.15 435.24 68.1 434.72 68.1 434.67 68.1 434.67 67.07 434.43 68.02 433.92 68.01 433.87 68.01 433.86 66.99 433.63 67.94 433.11 67.93 433.06 66.91 432.82 67.86 432.31 67.85 432.25 66.82 432.01 67.77 431.5 67.77 431.44 66.74 431.21 67.69 430.7 67.69 430.64 66.66 430.4 67.61 429.89 67.6 429.83 66.58 429.59 67.53 429.08 67.52 429.03 66.49 428.79 67.44 428.28 67.44 428.22 66.41 427.98 67.36 427.47 67.36 427.41 66.33 427.18 67.28 426.67 67.28 426.61 66.25 426.37 67.19 425.86 67.19 425.8 66.17 425.56 67.12 425.05 67.11 425 66.08 424.76 67.03 424.24 67.03 424.19 66 423.95 66.95 423.44 66.95 423.38 65.92 423.14 66.87 422.63 66.87 422.57 65.84 422.33 66.79 421.82 66.78 421.77 65.75 421.53 66.71 421.02 66.7 420.96 65.67 420.73 66.62 420.21 66.61 420.16 65.59 419.92 66.55 419.41 66.54 419.35 65.51 419.12 66.46 418.6 66.46 418.6 66.45 418.54 65.42 418.3 66.38 417.79 66.37 417.74 65.34 417.5 66.3 416.98 66.29 416.93 65.26 416.69 66.21 416.18 66.21 416.13 65.17 415.89 66.13 415.37 66.13 415.32 65.09 415.08 66.05 414.57 66.04 414.52 65.01 414.28 65.97 413.75 65.96 413.71 64.93 413.47 65.89 412.95 65.88 412.9 64.85 412.66 65.8 412.14 65.8 412.09 64.76 411.85 65.72 411.34 65.71 411.29 64.68 411.05 65.64 410.53 65.63 410.48 64.6 410.24 65.56 409.73 65.55 409.67 64.52 409.43 65.47 408.92 65.47 408.87 64.44 408.63 65.39 408.11 65.39 408.06 64.36 407.82 65.31 407.31 65.31 407.26 64.27 407.02 65.22 406.5 65.22 406.44 64.19 406.2 65.15 405.7 65.14 405.64 64.11 405.4 65.06 404.89 65.06 404.83 64.02 404.6 64.98 404.08 64.98 404.03 63.95 403.79 64.91 403.27 64.89 403.22 63.86 402.99 64.82 402.47 64.81 402.42 63.78 402.18 64.73 401.66 64.73 401.61 63.69 401.38 64.65 400.85 64.64 400.81 63.61 400.57 64.57 400.05 64.57 400 63.53 399.76 64.48 399.24 64.43 398.66 49.17 401.97 60.01 442.49 67.75 440.89" style="fill:#c7c7c7"></polygon><g style="opacity:0.30000000000000004"><polygon points="52.7 415.17 64.35 405.46 64.98 404.93 65.06 404.86 65.06 404.83 64.02 404.6 64.98 404.08 64.98 404.03 63.95 403.79 64.91 403.27 64.89 403.22 63.86 402.99 64.82 402.47 64.81 402.42 64.1 402.25 51.96 412.37 52.7 415.17" style="fill:#fff"></polygon><polygon points="61.58 442.17 67.04 441.04 68.07 440.18 67.65 440.08 68.6 439.56 68.59 439.51 67.56 439.27 68.52 438.76 68.51 438.7 67.48 438.47 68.43 437.95 68.42 437.9 67.39 437.66 68.35 437.15 68.34 437.09 67.82 436.97 61.58 442.17" style="fill:#fff"></polygon><polygon points="66.8 427.78 67.36 427.47 67.36 427.41 67.26 427.39 66.8 427.78" style="fill:#fff"></polygon><polygon points="58.77 437.88 66.76 431.22 66.83 431.16 67.51 430.6 66.66 430.4 67.61 429.89 67.6 429.83 66.58 429.59 67.53 429.08 67.52 429.03 66.49 428.79 67.44 428.28 67.44 428.22 66.52 428.01 58.03 435.08 58.77 437.88" style="fill:#fff"></polygon><polygon points="51.34 410.08 63.68 399.79 64.08 399.46 64.47 399.13 64.43 398.66 62.48 399.08 50.97 408.68 51.34 410.08" style="fill:#fff"></polygon><polygon points="66.36 424.03 66 423.95 66.95 423.44 66.95 423.38 66.3 423.23 56.95 431.03 57.13 431.73 66.36 424.03" style="fill:#fff"></polygon><polygon points="50.71 407.71 60.57 399.5 59.18 399.8 50.52 407.01 50.71 407.71" style="fill:#fff"></polygon></g><path d="M60.47,419.59H63a2.5,2.5,0,0,1,2.5,2.5v19.24a0,0,0,0,1,0,0H58a0,0,0,0,1,0,0V422.09A2.5,2.5,0,0,1,60.47,419.59Z" transform="translate(237.43 828.25) rotate(164.33)" style="fill:#37474f"></path><rect x="55.98" y="418.03" width="5.05" height="2" transform="matrix(-0.96, 0.27, -0.27, -0.96, 228.04, 806.68)" style="fill:#37474f"></rect><rect x="54.52" y="396.89" width="1.6" height="21.57" transform="translate(218.75 785.25) rotate(164.32)" style="fill:#ebebeb"></rect><path d="M50.34,395.91s0-3.46.15-3.49l.52-.15h0l.52-.14c.1,0,1.94,2.9,1.94,2.9l-.29,2-1.53.43Z" style="fill:#ebebeb"></path><rect x="63.26" y="421.08" width="1.31" height="16.81" transform="translate(241.48 825.72) rotate(164.33)" style="fill:#263238"></rect><rect x="60.92" y="421.73" width="1.31" height="16.81" transform="translate(237.06 827.64) rotate(164.33)" style="fill:#263238"></rect><rect x="58.58" y="422.39" width="1.31" height="16.81" transform="translate(232.64 829.57) rotate(164.33)" style="fill:#263238"></rect><path d="M67.4,395.95h2.49a2.5,2.5,0,0,1,2.5,2.5v19.24a0,0,0,0,1,0,0h-7.5a0,0,0,0,1,0,0V398.45a2.5,2.5,0,0,1,2.5-2.5Z" transform="translate(20.34 -2.91) rotate(2.85)" style="fill:#37474f"></path><rect x="65.53" y="417.68" width="5.05" height="2" transform="translate(20.93 -2.87) rotate(2.85)" style="fill:#37474f"></rect><rect x="66.66" y="419.67" width="1.6" height="21.57" transform="translate(21.53 -2.83) rotate(2.86)" style="fill:#ebebeb"></rect><path d="M68.45,443.2s-1.15,3.26-1.26,3.26l-.53,0h0l-.53,0c-.1,0-.92-3.36-.92-3.36l.92-1.85,1.59.08Z" style="fill:#ebebeb"></path><rect x="65.59" y="398.65" width="1.31" height="16.81" transform="matrix(1, 0.05, -0.05, 1, 20.35, -2.79)" style="fill:#263238"></rect><rect x="68.02" y="398.77" width="1.31" height="16.81" transform="translate(20.36 -2.92) rotate(2.85)" style="fill:#263238"></rect><rect x="70.45" y="398.89" width="1.31" height="16.81" transform="matrix(1, 0.05, -0.05, 1, 20.34, -3.03)" style="fill:#263238"></rect><rect x="76.42" y="399.29" width="6.46" height="40.04" transform="translate(208.94 826.06) rotate(173.12)" style="fill:#263238"></rect><rect x="73.24" y="395.57" width="8.05" height="8.05" transform="translate(201.84 787.06) rotate(173.12)" style="fill:#c7c7c7"></rect><path d="M80.82,395.5s7.62-5.47,11.59-5.95l1.66,13.78-12.37-.61Z" style="fill:#c7c7c7"></path><g style="opacity:0.2"><polygon points="93.17 395.92 88.02 403.03 88.01 403.03 84.88 402.88 92.72 392.1 93.17 395.92" style="fill:#fff"></polygon><path d="M91.82,389.66,82.3,402.75l-.6,0-.14-1.17,8.13-11.21A11.81,11.81,0,0,1,91.82,389.66Z" style="fill:#fff"></path><path d="M88,391.12l-6.62,9.11-.12-1,5.42-7.46C87.13,391.57,87.58,391.33,88,391.12Z" style="fill:#fff"></path></g><rect x="88.86" y="396.23" width="4.93" height="7.7" transform="matrix(0.99, 0.16, -0.16, 0.99, 64.87, -9.44)" style="fill:#ebebeb"></rect><path d="M94,398.94l3.29.53c.51.08,2.8-1.87,4.35-1.62l1.7.27c1.47.24,7.41,2.73,6.79,6.56l-.37,2.28s-.52-2.15-1.85-2.75a2.63,2.63,0,0,0-3.46,1.26,25.71,25.71,0,0,0-1.15,3.34l-6-1a22.64,22.64,0,0,0-.57-4.1c-.38-1.05-3.25-1.27-3.25-1.27Z" style="fill:#ebebeb"></path><rect x="97.26" y="408.23" width="3.8" height="13.73" transform="translate(67.38 -10.49) rotate(9.16)" style="fill:#ebebeb"></rect><rect x="93.82" y="415.35" width="5.66" height="30.57" transform="matrix(0.99, 0.16, -0.16, 0.99, 69.81, -9.9)" style="fill:#263238"></rect><rect x="49.93" y="420.31" width="57.56" height="30.49" style="fill:#407BFF"></rect><g style="opacity:0.1"><path d="M49.93,423.83c2.79-.11,5.58-.17,8.38-.22s5.58,0,8.37-.06l8.38.06c2.79.05,5.58.1,8.37.22-2.79.13-5.58.18-8.37.23l-8.38.06c-2.79,0-5.58,0-8.37-.06S52.72,424,49.93,423.83Z"></path><path d="M63.58,426.61c3.66-.12,7.32-.18,11-.23l11-.06,11,.06c3.66.05,7.32.11,11,.23-3.66.12-7.32.17-11,.22l-11,.07-11-.07C70.9,426.78,67.24,426.73,63.58,426.61Z"></path><path d="M97.72,430.78c-3.37.12-6.73.17-10.1.22l-10.11.07L67.4,431c-3.37-.05-6.74-.1-10.11-.22,3.37-.12,6.74-.18,10.11-.23l10.11-.06,10.11.07C91,430.6,94.35,430.66,97.72,430.78Z"></path><path d="M49.93,432.45c2.14-.12,4.28-.18,6.42-.22s4.29-.05,6.43-.07,4.28,0,6.42.07,4.28.1,6.43.22c-2.15.12-4.29.18-6.43.22s-4.28.05-6.42.07-4.28,0-6.43-.07S52.07,432.57,49.93,432.45Z"></path><polygon points="49.93 434.46 56.35 434.32 62.78 434.24 75.63 434.17 88.48 434.24 94.91 434.32 101.33 434.46 94.91 434.6 88.48 434.69 75.63 434.75 62.78 434.68 56.35 434.6 49.93 434.46"></polygon><path d="M107.49,436.05c-2.35.12-4.7.17-7,.22s-4.69,0-7,.07-4.7,0-7.05-.07-4.7-.1-7-.22c2.35-.12,4.7-.18,7-.22s4.7-.05,7.05-.07,4.69,0,7,.07S105.14,435.93,107.49,436.05Z"></path><path d="M71.69,438.49c2.17-.12,4.34-.17,6.51-.22s4.34,0,6.51-.07,4.34,0,6.51.07,4.33.1,6.5.22c-2.17.12-4.33.18-6.5.22s-4.34.05-6.51.07-4.34,0-6.51-.07S73.86,438.61,71.69,438.49Z"></path><path d="M49.93,443c3.58-.12,7.15-.17,10.73-.22l10.72-.07,10.73.07c3.58,0,7.15.1,10.73.22-3.58.12-7.15.18-10.73.22l-10.73.07-10.72-.07C57.08,443.19,53.51,443.13,49.93,443Z"></path><path d="M107.49,446.08c-2.4.12-4.8.17-7.2.22s-4.79,0-7.19.07-4.8,0-7.2-.07-4.79-.1-7.19-.22c2.4-.12,4.8-.18,7.19-.23s4.8,0,7.2-.06,4.8,0,7.19.07S105.09,446,107.49,446.08Z"></path><path d="M49.93,448.65c2-.12,4-.18,6-.22s4-.05,6-.07,4,0,6,.07,4,.1,6,.22c-2,.12-4,.17-6,.22s-4,.05-6,.07-4,0-6-.07S51.94,448.77,49.93,448.65Z"></path></g></g></svg>